<?xml version="1.0" encoding="utf-8"?>
<!-- Generator: Adobe Illustrator 24.2.1, SVG Export Plug-In . SVG Version: 6.00 Build 0)  -->
<svg version="1.1" id="Ebene_1" xmlns="http://www.w3.org/2000/svg" xmlns:xlink="http://www.w3.org/1999/xlink" x="0px" y="0px"
	 viewBox="0 0 8.4 14.5" style="enable-background:new 0 0 8.4 14.5;" xml:space="preserve">
<style type="text/css">
	.st0{fill: #ff8800;}
</style>
<path id="Pfad_5" class="st0" d="M0.1,13.6C0.1,13.5,0,13.4,0,13.3c0-0.1,0.1-0.2,0.1-0.3l5.7-5.7L0.1,1.5C0.1,1.5,0,1.3,0,1.2
	C0,1.1,0.1,1,0.1,0.9l0.7-0.7C1,0.1,1.1,0,1.2,0c0.1,0,0.2,0.1,0.3,0.1l6.8,6.8C8.4,7,8.4,7.1,8.4,7.2c0,0.1-0.1,0.2-0.1,0.3
	l-6.8,6.8c-0.1,0.1-0.2,0.1-0.3,0.1c-0.1,0-0.2-0.1-0.3-0.1L0.1,13.6z"/>
</svg>
