<?xml version="1.0" encoding="UTF-8"?>
<svg width="106px" height="76px" viewBox="0 0 106 76" version="1.1" xmlns="http://www.w3.org/2000/svg" xmlns:xlink="http://www.w3.org/1999/xlink">
    <title>’’</title>
    <g id="Screendesign_Draft" stroke="none" stroke-width="1" fill="none" fill-rule="evenodd">
        <g id="Food_Detektiv_Website_Relaunch_Startseite_Draft_1440px_Desktop_V1" transform="translate(-151.000000, -3368.000000)" fill="#FF8800" fill-rule="nonzero">
            <g id="Zitat" transform="translate(151.000000, 3079.000000)">
                <path d="M24.5,289 C31.6768036,289 37.55427,291.173181 42.1325758,295.519608 C46.7108815,299.866035 49,305.640487 49,312.843137 C49,316.071912 48.5669235,319.300637 47.7007576,322.529412 C46.8345916,325.758186 44.8548134,330.663366 41.7613636,337.245098 L28.7689394,365 L2.78409091,365 L12.0643939,333.519608 C8.22851617,331.656853 5.2588489,328.9559 3.15530303,325.416667 C1.05175716,321.877433 0,317.686299 0,312.843137 C0,305.640487 2.28911852,299.866035 6.86742424,295.519608 C11.44573,291.173181 17.3231964,289 24.5,289 Z M81.5,289 C88.6768036,289 94.55427,291.173181 99.1325758,295.519608 C103.710881,299.866035 106,305.640487 106,312.843137 C106,316.071912 105.566924,319.300637 104.700758,322.529412 C103.834592,325.758186 101.854813,330.663366 98.7613636,337.245098 L85.7689394,365 L59.7840909,365 L69.0643939,333.519608 C65.2285162,331.656853 62.2588489,328.9559 60.155303,325.416667 C58.0517572,321.877433 57,317.686299 57,312.843137 C57,305.640487 59.2891185,299.866035 63.8674242,295.519608 C68.44573,291.173181 74.3231964,289 81.5,289 Z" id="’’"></path>
            </g>
        </g>
    </g>
</svg>