<?xml version="1.0" encoding="UTF-8"?>
<svg width="106px" height="76px" viewBox="0 0 106 76" version="1.1" xmlns="http://www.w3.org/2000/svg" xmlns:xlink="http://www.w3.org/1999/xlink">
    <title>’’</title>
    <g id="Screendesign_Draft" stroke="none" stroke-width="1" fill="none" fill-rule="evenodd">
        <g id="Food_Detektiv_Website_Relaunch_Startseite_Draft_1440px_Desktop_V1" transform="translate(-705.000000, -3080.000000)" fill="#FF8800" fill-rule="nonzero">
            <g id="Zitat" transform="translate(151.000000, 3080.000000)">
                <path d="M578.5,0 C585.676804,0 591.55427,2.17318088 596.132576,6.51960784 C600.710881,10.8660348 603,16.6404869 603,23.8431373 C603,27.0719116 602.566924,30.3006375 601.700758,33.5294118 C600.834592,36.7581861 598.854813,41.6633658 595.761364,48.245098 L582.768939,76 L556.784091,76 L566.064394,44.5196078 C562.228516,42.6568534 559.258849,39.9559 557.155303,36.4166667 C555.051757,32.8774333 554,28.6862987 554,23.8431373 C554,16.6404869 556.289119,10.8660348 560.867424,6.51960784 C565.44573,2.17318088 571.323196,0 578.5,0 Z M635.5,0 C642.676804,0 648.55427,2.17318088 653.132576,6.51960784 C657.710881,10.8660348 660,16.6404869 660,23.8431373 C660,27.0719116 659.566924,30.3006375 658.700758,33.5294118 C657.834592,36.7581861 655.854813,41.6633658 652.761364,48.245098 L639.768939,76 L613.784091,76 L623.064394,44.5196078 C619.228516,42.6568534 616.258849,39.9559 614.155303,36.4166667 C612.051757,32.8774333 611,28.6862987 611,23.8431373 C611,16.6404869 613.289119,10.8660348 617.867424,6.51960784 C622.44573,2.17318088 628.323196,0 635.5,0 Z" id="’’" transform="translate(607.000000, 38.000000) scale(-1, -1) translate(-607.000000, -38.000000) "></path>
            </g>
        </g>
    </g>
</svg>