<?xml version="1.0" encoding="UTF-8"?>
<svg width="24px" height="24px" viewBox="0 0 24 24" version="1.1" xmlns="http://www.w3.org/2000/svg" xmlns:xlink="http://www.w3.org/1999/xlink">
    <title>Group 15</title>
    <defs>
        <filter id="filter-1">
            <feColorMatrix in="SourceGraphic" type="matrix" values="0 0 0 0 1.000000 0 0 0 0 1.000000 0 0 0 0 1.000000 0 0 0 1.000000 0"></feColorMatrix>
        </filter>
    </defs>
    <g id="Datenbank-Screens" stroke="none" stroke-width="1" fill="none" fill-rule="evenodd">
        <g id="Food_Detektiv_Website_Relaunch_Zusatzstoffe_Draft_V4-4b-1440px" transform="translate(-549.000000, -456.000000)">
            <g id="Group-15" transform="translate(533.000000, 440.000000)" filter="url(#filter-1)">
                <g transform="translate(16.000000, 16.000000)">
                    <path d="M17.8812831,16.2198277 C17.7802985,16.1794892 15.3697754,15.2307508 11.9999908,15.2307508 C8.63020615,15.2307508 6.21968308,16.1794892 6.11869846,16.2198277 C5.64534462,16.4092431 5.41512923,16.9463815 5.60445231,17.4197354 C5.79386769,17.8930892 6.33100615,18.1229354 6.80436,17.9339815 C6.82577538,17.9254892 8.98189846,17.0769046 11.9999908,17.0769046 C14.9950985,17.0769046 17.1754985,17.9259508 17.1956215,17.9339815 C17.3080523,17.9790277 17.4240831,18.0002585 17.5381754,18.0002585 C17.9045446,18.0001662 18.25116,17.7806585 18.3955292,17.4197354 C18.5848523,16.9463815 18.3546369,16.4092431 17.8812831,16.2198277" id="Fill-1" fill="#000000"></path>
                    <path d="M12,22.1538462 C6.40116923,22.1538462 1.84615385,17.5988308 1.84615385,12 C1.84615385,6.40116923 6.40116923,1.84615385 12,1.84615385 C17.5988308,1.84615385 22.1538462,6.40116923 22.1538462,12 C22.1538462,17.5988308 17.5988308,22.1538462 12,22.1538462 M12,0 C5.3832,0 0,5.38310769 0,12 C0,18.6168923 5.3832,24 12,24 C18.6168923,24 24,18.6168923 24,12 C24,5.38310769 18.6168923,0 12,0" id="Fill-3" fill="#000000"></path>
                    <path d="M17.0769231,10.1538462 C17.8416,10.1538462 18.4615385,9.53390769 18.4615385,8.76923077 C18.4615385,8.00455385 17.8416,7.38461538 17.0769231,7.38461538 C16.3122462,7.38461538 15.6923077,8.00455385 15.6923077,8.76923077 C15.6923077,9.53390769 16.3122462,10.1538462 17.0769231,10.1538462" id="Fill-5" fill="#000000"></path>
                    <path d="M8.76923077,7.66153846 C9.27904615,7.66153846 9.69230769,7.24818462 9.69230769,6.73846154 C9.69230769,6.22873846 9.27904615,5.81538462 8.76923077,5.81538462 C8.25941538,5.81538462 7.84615385,6.22873846 7.84615385,6.73846154 C7.84615385,7.24818462 8.25941538,7.66153846 8.76923077,7.66153846" id="Fill-7" fill="#000000"></path>
                    <path d="M6.46153846,10.4307692 C6.97135385,10.4307692 7.38461538,10.0174154 7.38461538,9.50769231 C7.38461538,8.99796923 6.97135385,8.58461538 6.46153846,8.58461538 C5.95172308,8.58461538 5.53846154,8.99796923 5.53846154,9.50769231 C5.53846154,10.0174154 5.95172308,10.4307692 6.46153846,10.4307692" id="Fill-9" fill="#000000"></path>
                    <path d="M9.23076923,9.50769231 C9.23076923,10.0174154 9.64403077,10.4307692 10.1538462,10.4307692 C10.6636615,10.4307692 11.0769231,10.0174154 11.0769231,9.50769231 C11.0769231,8.99796923 10.6636615,8.58461538 10.1538462,8.58461538 C9.64403077,8.58461538 9.23076923,8.99796923 9.23076923,9.50769231" id="Fill-11" fill="#000000"></path>
                    <path d="M6.92307692,12.2769231 C6.92307692,12.7866462 7.33633846,13.2 7.84615385,13.2 C8.35596923,13.2 8.76923077,12.7866462 8.76923077,12.2769231 C8.76923077,11.7672 8.35596923,11.3538462 7.84615385,11.3538462 C7.33633846,11.3538462 6.92307692,11.7672 6.92307692,12.2769231" id="Fill-13" fill="#000000"></path>
                </g>
            </g>
        </g>
    </g>
</svg>