<?xml version="1.0" encoding="UTF-8"?>
<svg width="24px" height="24px" viewBox="0 0 24 24" version="1.1" xmlns="http://www.w3.org/2000/svg" xmlns:xlink="http://www.w3.org/1999/xlink">
    <title>Group 9</title>
    <defs>
        <filter id="filter-1">
            <feColorMatrix in="SourceGraphic" type="matrix" values="0 0 0 0 1.000000 0 0 0 0 1.000000 0 0 0 0 1.000000 0 0 0 1.000000 0"></feColorMatrix>
        </filter>
    </defs>
    <g id="Datenbank-Screens" stroke="none" stroke-width="1" fill="none" fill-rule="evenodd">
        <g id="Food_Detektiv_Website_Relaunch_Zusatzstoffe_Draft_V4-4b-1440px" transform="translate(-264.000000, -456.000000)">
            <g id="Group-9" transform="translate(248.000000, 440.000000)" filter="url(#filter-1)">
                <g transform="translate(16.000000, 16.000000)">
                    <path d="M12,22.1538462 C6.40116923,22.1538462 1.84615385,17.5988308 1.84615385,12 C1.84615385,6.40116923 6.40116923,1.84615385 12,1.84615385 C17.5988308,1.84615385 22.1538462,6.40116923 22.1538462,12 C22.1538462,17.5988308 17.5988308,22.1538462 12,22.1538462 M12,0 C5.38310769,0 0,5.38310769 0,12 C0,18.6168923 5.38310769,24 12,24 C18.6168923,24 24,18.6168923 24,12 C24,5.38310769 18.6168923,0 12,0" id="Fill-1" fill="#000000"></path>
                    <path d="M18.4383692,6.48470769 C18.0778154,6.12433846 17.4935077,6.12433846 17.1328615,6.48470769 L16.1538462,7.46372308 L15.1748308,6.48470769 C14.8141846,6.12433846 14.2298769,6.12433846 13.8693231,6.48470769 C13.5088615,6.84516923 13.5088615,7.42966154 13.8693231,7.79021538 L14.8483385,8.76923077 L13.8693231,9.74824615 C13.5088615,10.1088 13.5088615,10.6932923 13.8693231,11.0537538 C14.0496,11.2339385 14.2858154,11.3241231 14.5220308,11.3241231 C14.7583385,11.3241231 14.9944615,11.2339385 15.1748308,11.0537538 L16.1538462,10.0747385 L17.1328615,11.0537538 C17.3132308,11.2339385 17.5493538,11.3241231 17.7856615,11.3241231 C18.0218769,11.3241231 18.2580923,11.2339385 18.4383692,11.0537538 C18.7988308,10.6932923 18.7988308,10.1088 18.4383692,9.74824615 L17.4593538,8.76923077 L18.4383692,7.79021538 C18.7988308,7.42966154 18.7988308,6.84516923 18.4383692,6.48470769" id="Fill-3" fill="#000000"></path>
                    <path d="M8.82520615,11.0537538 C9.00548308,11.2339385 9.24169846,11.3241231 9.47791385,11.3241231 C9.71422154,11.3241231 9.95034462,11.2339385 10.1307138,11.0537538 C10.4911754,10.6932923 10.4911754,10.1088 10.1307138,9.74824615 L9.15160615,8.76923077 L10.1307138,7.79021538 C10.4911754,7.42966154 10.4911754,6.84516923 10.1307138,6.48470769 C9.77006769,6.12433846 9.18576,6.12433846 8.82520615,6.48470769 L7.84619077,7.46372308 L6.86708308,6.48470769 C6.50652923,6.12433846 5.92222154,6.12433846 5.56166769,6.48470769 C5.20111385,6.84516923 5.20111385,7.42966154 5.56166769,7.79021538 L6.54068308,8.76923077 L5.56166769,9.74824615 C5.20111385,10.1088 5.20111385,10.6932923 5.56166769,11.0537538 C5.74194462,11.2339385 5.97806769,11.3241231 6.21437538,11.3241231 C6.45059077,11.3241231 6.68680615,11.2339385 6.86708308,11.0537538 L7.84619077,10.0747385 L8.82520615,11.0537538 Z" id="Fill-5" fill="#000000"></path>
                    <path d="M16.1538462,16.4307692 L7.84615385,16.4307692 C7.33643077,16.4307692 6.92307692,16.8441231 6.92307692,17.3538462 C6.92307692,17.8635692 7.33643077,18.2769231 7.84615385,18.2769231 L16.1538462,18.2769231 C16.6635692,18.2769231 17.0769231,17.8635692 17.0769231,17.3538462 C17.0769231,16.8441231 16.6635692,16.4307692 16.1538462,16.4307692" id="Fill-7" fill="#000000"></path>
                </g>
            </g>
        </g>
    </g>
</svg>