<?xml version="1.0" encoding="utf-8"?>
<!-- Generator: Adobe Illustrator 25.1.0, SVG Export Plug-In . SVG Version: 6.00 Build 0)  -->
<svg version="1.1" id="Ebene_1" xmlns="http://www.w3.org/2000/svg" xmlns:xlink="http://www.w3.org/1999/xlink" x="0px" y="0px"
	 viewBox="0 0 878.9 591.7" style="enable-background:new 0 0 878.9 591.7;" xml:space="preserve">
<style type="text/css">
	.st0{fill:none;stroke:#000000;stroke-width:21.202;stroke-linecap:round;stroke-linejoin:round;}
	.st1{stroke:#000000;stroke-miterlimit:10;}
	.st2{fill:none;stroke:#000000;stroke-width:21;stroke-linecap:round;stroke-linejoin:round;}
	.st3{fill:none;stroke:#000000;stroke-width:21;stroke-linecap:round;stroke-miterlimit:10;}
	.st4{fill:#FFFFFF;stroke:#000000;stroke-width:21;stroke-miterlimit:10;}
</style>
<g id="Hut">
	<path d="M434.1,103.8c0,0,18-65.7,56.5-89.7S607-3.1,659.5,32.1s24.6,137.7,24.6,137.7s32.8-6.5,40.6,0c8.3,6.9,5.3,29.3-23.9,35.9
		c-29.3,6.7-173.1-2.5-250.1-42.6c-58.7-30.6-70.4-65.4-49.6-72.4C413.1,86.8,434.1,103.8,434.1,103.8z"/>
</g>
<g id="Ebene_8">
	<path class="st0" d="M811.9,327.1c0,87.7-112.3,171.5-255,171.5s-365.1-71.1-365.1-158.7S369,184.5,556.9,195.1
		C699.4,203.1,811.9,239.4,811.9,327.1z"/>
</g>
<g id="Gesicht">
	<circle class="st1" cx="712.7" cy="314.1" r="21.9"/>
	<path class="st2" d="M637.1,272.5c0,0,41.6-50.5,117.4-31.9"/>
	<line class="st3" x1="319.7" y1="258.9" x2="429.6" y2="238.3"/>
	<circle class="st1" cx="311" cy="327.1" r="22.6"/>
	<path class="st3" d="M517.2,346.7c0,0-56.8-28.6-87.6-26.6s-22.9,35-16.6,49.9c4.6,10.9,8.4,33.5,57,30.8c34.9-1.9,56.8-20,56.8-20
		"/>
	<path d="M877,466.7l-68.7-82.5L792.6,401l-33.3,41.6l-33.2,6.5c0,0,11.9-38.5,2.5-50.5c-9.3-12-28.6-33.3-65.2-31.3
		s-40.6,10.5-81.8,25.9c-49.9,18.6-109.8,12.1-143.7-2c-11.8-4.9-18.6-12.6-33.3-17.3s-62.5-11.3-79.8,5.3s-12,47.2-12,47.2
		s2.5,15.7-2,13.3c-13.7-7.2-52.2-23.7-52.2-23.7l-8.9,23.7l-28.6,64.5c0,0-60.2-25.3-69.8-28.6c-13.3-4.7-19.3,5.3-9.3,18
		s46.2,56.2,68.2,64.5c16.5,6.3,70.8,0,70.8,0s23.3,33.2,35.9,29.2s22.6-15.3,22.6-15.3l25.4,1.6c3.6,0.2,7.1-1.4,9.3-4.3l55.8-83.1
		c0,0,187.2,18.4,223.1-4.9l48.9,46.1c0,0-57.5,16.5-71.3,29.7c-2.8,2.7-5.3,9.7-4.5,13.1c3.1,12.4,17.5,23.3,46.6,21.1
		c43.9-3.3,81.8-12.6,115.1-57.9l25.2,6.2c4.5,1.1,9.1-0.7,11.7-4.5l24.3-36.2l27.1-21.7c3.1-2.5,3.6-7.1,1.1-10.2
		C877.2,467,877.1,466.8,877,466.7z M636.8,455.5c-5.6,11.5-16.4,27.9-91.4,27.9c-89.9,0-97.5-27.5-97.5-27.5s-3.1-10.4,4.8-10.4
		c34.4,0.3,146.6,0.1,178,0.1c3.8,0,6.8,3.1,6.8,6.8C637.5,453.5,637.2,454.6,636.8,455.5L636.8,455.5z"/>
</g>
<g id="Lupe">
	<circle class="st4" cx="110.4" cy="164.3" r="99.9"/>
	<path d="M184,332.1l-87.8-5v-32.4c0-3.1-1.7-6-4.5-7.5c-3.6-1.9-8.3-1.3-8.3-1.3l-16.7,48.7l-26.9-9.8L52,289.3l-24.3,3.8
		c-6.4,0.5-11.3,5.8-11.3,12.1v47.4c0,2.7,1.2,5.2,3.2,7l6.6,4.8l-10.8,29.9c-2.7,8.3-1.3,14.8,6.9,18.1l0,0
		c7.5,2.1,16.3,2,19.3-5.2l10.9-31.8l21.8,2.1v4.4c0,6,4.1,11.3,9.9,12.9l165.5,44.8l17.8-12.7c0,0-64.5-45.7-70.7-64.4
		C193.5,352.2,189.2,341.9,184,332.1z"/>
</g>
</svg>
