<?xml version="1.0" encoding="UTF-8"?>
<svg width="35px" height="32px" viewBox="0 0 35 32" version="1.1" xmlns="http://www.w3.org/2000/svg" xmlns:xlink="http://www.w3.org/1999/xlink">
    <title>Facebook</title>
    <defs>
        <polygon id="path-1" points="0.561403509 0.561403509 34.245614 0.561403509 34.245614 32 0.561403509 32"></polygon>
    </defs>
    <g id="Screendesign_Draft" stroke="none" stroke-width="1" fill="none" fill-rule="evenodd">
        <g id="Food_Detektiv_Website_Relaunch_Startseite_Draft_1440px_Desktop_V1" transform="translate(-1203.000000, -7391.000000)">
            <g id="Footer" transform="translate(0.000000, 7273.000000)">
                <g id="Facebook" transform="translate(1203.000000, 118.000000)">
                    <mask id="mask-2" fill="white">
                        <use xlink:href="#path-1"></use>
                    </mask>
                    <g id="Clip-13"></g>
                    <polygon id="Rectangle" fill="#FFFFFF" mask="url(#mask-2)" points="6 4 31 4 27.9294561 32 6 32"></polygon>
                    <path d="M27.9294561,0.561403509 C29.6693715,0.561403509 31.1567977,1.13816595 32.3917347,2.29077389 C33.6276543,3.44429878 34.245614,4.83256324 34.245614,6.45648421 L34.245614,26.1049193 C34.245614,27.7288403 33.6276543,29.1171047 32.3917347,30.2706296 C31.1567977,31.4241545 29.6693715,32 27.9294561,32 L23.8071045,32 L23.8071045,19.8210512 L28.1711383,19.8210512 L28.8293785,15.0730767 L23.8071045,15.0730767 L23.8071045,12.0443862 C23.8071045,11.2796487 23.9790329,10.7065541 24.3219073,10.3241853 C24.665764,9.94273352 25.3338287,9.75109067 26.3290484,9.75109067 L29.0042542,9.73091774 L29.0042542,5.49368521 C28.082718,5.37173067 26.7819569,5.31029493 25.1009885,5.31029493 C23.1125138,5.31029493 21.522913,5.85588103 20.3312037,6.94705322 C19.1394943,8.03914236 18.5441308,9.58053771 18.5441308,11.5730731 L18.5441308,15.0730767 L14.1575007,15.0730767 L14.1575007,19.8210512 L18.5441308,19.8210512 L18.5441308,32 L6.8775614,32 C5.13764608,32 3.65021987,31.4241545 2.41430035,30.2706296 C1.17838082,29.1171047 0.561403509,27.7288403 0.561403509,26.1049193 L0.561403509,6.45648421 C0.561403509,4.83256324 1.17838082,3.44429878 2.41430035,2.29077389 C3.65021987,1.13816595 5.13764608,0.561403509 6.8775614,0.561403509 L27.9294561,0.561403509 Z" id="Fill-12" fill="#000000" mask="url(#mask-2)"></path>
                </g>
            </g>
        </g>
    </g>
</svg>