<?xml version="1.0" encoding="UTF-8"?>
<svg width="34px" height="32px" viewBox="0 0 34 32" version="1.1" xmlns="http://www.w3.org/2000/svg" xmlns:xlink="http://www.w3.org/1999/xlink">
    <title>Instagram</title>
    <defs>
        <polygon id="path-1" points="0 0.561403509 33.122807 0.561403509 33.122807 32 0 32"></polygon>
    </defs>
    <g id="Screendesign_Draft" stroke="none" stroke-width="1" fill="none" fill-rule="evenodd">
        <g id="Food_Detektiv_Website_Relaunch_Startseite_Draft_1440px_Desktop_V1" transform="translate(-1092.000000, -7391.000000)">
            <g id="Footer" transform="translate(0.000000, 7273.000000)">
                <g id="Instagram" transform="translate(1092.000000, 118.000000)">
                    <mask id="mask-2" fill="white">
                        <use xlink:href="#path-1"></use>
                    </mask>
                    <g id="Clip-6"></g>
                    <rect id="Rectangle" fill="#FFFFFF" mask="url(#mask-2)" x="4" y="4" width="25" height="24" rx="1"></rect>
                    <path d="M27.4461299,20.5727855 C27.3514381,22.4501136 26.7620299,23.903736 25.6769391,24.9327356 C24.5928146,25.9617351 23.0613196,26.5211734 21.0843866,26.6110504 C20.246654,26.656906 18.739315,26.6789167 16.5614035,26.6789167 C14.383492,26.6789167 12.876153,26.656906 12.0393867,26.6110504 C10.0614874,26.5211734 8.52999243,25.9617351 7.44586788,24.9327356 C6.36174333,23.903736 5.77233516,22.4501136 5.67764335,20.5727855 C5.6293312,19.7785666 5.60517513,18.347872 5.60517513,16.2807018 C5.60517513,14.2135315 5.6293312,12.7828369 5.67764335,11.988618 C5.77233516,10.1112899 6.36174333,8.65766751 7.44586788,7.62866794 C8.52999243,6.59966837 10.0614874,6.0402301 12.0393867,5.94943602 C12.876153,5.90449753 14.383492,5.88156974 16.5614035,5.88156974 C18.739315,5.88156974 20.246654,5.90449753 21.0843866,5.94943602 C23.0613196,6.0402301 24.5928146,6.59966837 25.6769391,7.62866794 C26.7620299,8.65766751 27.3514381,10.1112899 27.4461299,11.988618 C27.4934758,12.7828369 27.5176319,14.2135315 27.5176319,16.2807018 C27.5176319,18.347872 27.4934758,19.7785666 27.4461299,20.5727855 M31.2966079,2.28557391 C30.0888043,1.13918402 28.620115,0.561403509 26.9098651,0.561403509 L6.20327949,0.561403509 C4.49302954,0.561403509 3.03400274,1.13918402 1.81653667,2.28557391 C0.599070605,3.44113493 0,4.83514504 0,6.45843313 L0,26.1121415 C0,27.7354296 0.599070605,29.1202686 1.81653667,30.2758296 C3.03400274,31.4313906 4.49302954,32 6.20327949,32 L26.9098651,32 C28.620115,32 30.0888043,31.4313906 31.2966079,30.2758296 C32.514074,29.1202686 33.122807,27.7354296 33.122807,26.1121415 L33.122807,6.45843313 C33.122807,4.83514504 32.514074,3.44113493 31.2966079,2.28557391" id="Fill-5" fill="#000000" mask="url(#mask-2)"></path>
                    <path d="M16.5618863,12.9122807 C15.5548655,12.9122807 14.6946013,13.2411463 13.9820593,13.8988774 C13.2685517,14.5566085 12.9122807,15.3506985 12.9122807,16.2802561 C12.9122807,17.210705 13.2685517,18.0039038 13.9820593,18.6625261 C14.6946013,19.3202573 15.5548655,19.6491228 16.5618863,19.6491228 C17.5689071,19.6491228 18.4291712,19.3202573 19.1417133,18.6625261 C19.8552208,18.0039038 20.2105263,17.210705 20.2105263,16.2802561 C20.2105263,15.3506985 19.8552208,14.5566085 19.1417133,13.8988774 C18.4291712,13.2411463 17.5689071,12.9122807 16.5618863,12.9122807" id="Fill-1" fill="#000000" mask="url(#mask-2)"></path>
                    <path d="M23.0457885,11.6746579 C22.7892055,11.9152013 22.4805341,12.035473 22.1197745,12.035473 C21.7590149,12.035473 21.4513082,11.9152013 21.1947251,11.6746579 C20.9381421,11.4350189 20.8098506,11.1456434 20.8098506,10.8074358 C20.8098506,10.4692282 20.9381421,10.1798527 21.1947251,9.93930933 C21.4513082,9.69876596 21.7590149,9.57849428 22.1197745,9.57849428 C22.4805341,9.57849428 22.7892055,9.69876596 23.0457885,9.93930933 C23.3023715,10.1798527 23.4296985,10.4692282 23.4296985,10.8074358 C23.4296985,11.1456434 23.3023715,11.4350189 23.0457885,11.6746579 M20.2542422,20.0059589 C19.1623174,21.0296247 17.8379245,21.5414576 16.2810635,21.5414576 C14.7242025,21.5414576 13.3998096,21.0296247 12.3078848,20.0059589 C11.21596,18.9822932 10.6699975,17.7406915 10.6699975,16.2811539 C10.6699975,14.820712 11.21596,13.5800146 12.3078848,12.5563489 C13.3998096,11.5326831 14.7242025,11.0208502 16.2810635,11.0208502 C17.8379245,11.0208502 19.1623174,11.5326831 20.2542422,12.5563489 C21.346167,13.5800146 21.8921294,14.820712 21.8921294,16.2811539 C21.8921294,17.7406915 21.346167,18.9822932 20.2542422,20.0059589 M25.2595407,13.8513041 C25.2556823,13.5311825 25.2412133,13.1016408 25.2170983,12.5626789 C25.193948,12.0246214 25.1466827,11.5661421 25.0753025,11.1872411 C25.0039222,10.8092444 24.9161438,10.4909313 24.8119672,10.2332063 C24.6209768,9.7882915 24.3460664,9.395826 23.9862714,9.05761841 C23.6245472,8.72031511 23.2068763,8.46168577 22.7322942,8.28353899 C22.4573838,8.18587477 22.1178453,8.10358361 21.7146434,8.03666553 C21.3104769,7.96974745 20.8214258,7.92543683 20.24749,7.90373367 C19.6725897,7.88112621 19.2153703,7.86846603 18.872938,7.86304024 C18.5314704,7.85851875 18.0308441,7.85851875 17.3710591,7.86304024 C16.7103095,7.86846603 16.3476207,7.86937033 16.2810635,7.86937033 C16.2145062,7.86937033 15.8518174,7.86846603 15.1910679,7.86304024 C14.5312829,7.85851875 14.0316212,7.85851875 13.6891889,7.86304024 C13.3477213,7.86846603 12.8895373,7.88112621 12.3146369,7.90373367 C11.7407012,7.92543683 11.2516501,7.96974745 10.8484482,8.03666553 C10.4452462,8.10358361 10.1047432,8.18587477 9.82983278,8.28353899 C9.35525062,8.46168577 8.93757973,8.72031511 8.57682012,9.05761841 C8.21606051,9.395826 7.94018551,9.7882915 7.75112432,10.2332063 C7.64598315,10.4909313 7.55820475,10.8092444 7.4877891,11.1872411 C7.41544426,11.5661421 7.36914356,12.0246214 7.34502861,12.5626789 C7.32091366,13.1016408 7.30740929,13.5311825 7.3025863,13.8513041 C7.29679872,14.1714258 7.29679872,14.6407566 7.3025863,15.2592967 C7.30740929,15.8778368 7.30933849,16.2187573 7.30933849,16.2811539 C7.30933849,16.3435505 7.30740929,16.6835667 7.3025863,17.3021068 C7.29679872,17.9215512 7.29679872,18.390882 7.3025863,18.7110037 C7.30740929,19.0311253 7.32091366,19.460667 7.34502861,19.9996289 C7.36914356,20.5376864 7.41544426,20.9961657 7.4877891,21.3741624 C7.55820475,21.7530634 7.64598315,22.0713765 7.75112432,22.3291015 C7.94018551,22.7740163 8.21606051,23.1655775 8.57682012,23.5037851 C8.93757973,23.8419927 9.35525062,24.0997177 9.82983278,24.2787688 C10.1047432,24.3755287 10.4452462,24.4587242 10.8484482,24.524738 C11.2516501,24.5916561 11.7407012,24.6359667 12.3146369,24.6585741 C12.8895373,24.6811816 13.3477213,24.6938418 13.6891889,24.6983633 C14.0316212,24.7028848 14.5312829,24.7028848 15.1910679,24.6983633 C15.8518174,24.6938418 16.2145062,24.6920332 16.2810635,24.6920332 C16.3476207,24.6920332 16.7103095,24.6938418 17.3710591,24.6983633 C18.0308441,24.7028848 18.5314704,24.7028848 18.872938,24.6983633 C19.2153703,24.6938418 19.6725897,24.6811816 20.24749,24.6585741 C20.8214258,24.6359667 21.3104769,24.5916561 21.7146434,24.524738 C22.1178453,24.4587242 22.4573838,24.3755287 22.7322942,24.2787688 C23.2068763,24.0997177 23.6245472,23.8419927 23.9862714,23.5037851 C24.3460664,23.1655775 24.6209768,22.7740163 24.8119672,22.3291015 C24.9161438,22.0713765 25.0039222,21.7530634 25.0753025,21.3741624 C25.1466827,20.9961657 25.193948,20.5376864 25.2170983,19.9996289 C25.2412133,19.460667 25.2556823,19.0311253 25.2595407,18.7110037 C25.2643636,18.390882 25.2643636,17.9215512 25.2595407,17.3021068 C25.2556823,16.6835667 25.2537531,16.3435505 25.2537531,16.2811539 C25.2537531,16.2187573 25.2556823,15.8778368 25.2595407,15.2592967 C25.2643636,14.6407566 25.2643636,14.1714258 25.2595407,13.8513041" id="Fill-3" fill="#000000" mask="url(#mask-2)"></path>
                </g>
            </g>
        </g>
    </g>
</svg>