<?xml version="1.0" encoding="UTF-8"?>
<svg width="34px" height="32px" viewBox="0 0 34 32" version="1.1" xmlns="http://www.w3.org/2000/svg" xmlns:xlink="http://www.w3.org/1999/xlink">
    <title>YouTube</title>
    <g id="Screendesign_Draft" stroke="none" stroke-width="1" fill="none" fill-rule="evenodd">
        <g id="Food_Detektiv_Website_Relaunch_Startseite_Draft_1440px_Desktop_V1" transform="translate(-1148.000000, -7391.000000)">
            <g id="Footer" transform="translate(0.000000, 7273.000000)">
                <g id="YouTube" transform="translate(1148.000000, 118.000000)">
                    <rect id="Rectangle" fill="#FFFFFF" x="3" y="6" width="27" height="21"></rect>
                    <polygon id="Fill-8" fill="#000000" points="15.9705882 19 22.9705882 15.5203456 15.9705882 12"></polygon>
                    <path d="M28.0771904,15.1679768 L28.0771904,16.8310568 C28.0846743,18.012897 28.0145125,19.1947371 27.8638983,20.3775436 C27.8087043,20.8249614 27.7104776,21.2308264 27.5682829,21.5932059 C27.4260882,21.9565516 27.2997968,22.2078014 27.1894087,22.3459887 L27.0238267,22.553753 C26.9125032,22.6764788 26.7983732,22.7837431 26.6805012,22.8784449 C26.5616938,22.9721804 26.4400799,23.0485217 26.3137885,23.1103678 C26.1865616,23.1712475 26.0761736,23.2224638 25.9816889,23.2630503 C25.8872043,23.3036368 25.7749453,23.3364925 25.6449119,23.3606512 C25.5148786,23.3848098 25.4194584,23.4031704 25.3605224,23.4157328 C25.3015864,23.4282953 25.2108437,23.4408578 25.0882943,23.452454 C24.9657449,23.4640501 24.9002605,23.4708145 24.8927766,23.4708145 C22.9123406,23.6254297 20.4379649,23.7037037 17.4705852,23.7037037 C15.8372166,23.6863095 14.4180757,23.6602182 13.2150333,23.6234971 C12.0119909,23.5867759 11.2205649,23.5568192 10.8416908,23.5316943 L10.2616859,23.4824107 L9.83510168,23.4340934 C9.55164768,23.3935069 9.33554909,23.3529204 9.19054788,23.3123339 C9.04461117,23.2717474 8.84254495,23.1857427 8.58622022,23.0552861 C8.32989548,22.9248295 8.10724845,22.7576518 7.91827912,22.553753 C7.87056905,22.5044693 7.80882659,22.4300608 7.73398725,22.3276282 C7.65914791,22.2261619 7.54501792,21.9874747 7.39066179,21.6125328 C7.23724114,21.2375908 7.13246607,20.8249614 7.07727206,20.3775436 C7.01365862,19.8557172 6.96501305,19.2991024 6.92946437,18.7086655 C6.89391568,18.1172623 6.87239937,17.6543829 6.86397994,17.3200275 L6.86397994,16.8310568 L6.86397994,15.1679768 C6.85649601,13.9861367 6.92759338,12.8042965 7.07727206,11.62149 C7.13246607,11.1731059 7.2306927,10.7682072 7.37288745,10.4048615 C7.51508219,10.042482 7.64137357,9.79219862 7.7517616,9.65304492 L7.91827912,9.4452807 C8.02773166,9.32352121 8.14279714,9.21529055 8.2606691,9.12155507 C8.37947655,9.02781959 8.50202596,8.94761294 8.62738185,8.88286782 C8.75460873,8.81812269 8.86499675,8.7649737 8.95948142,8.72438721 C9.05396608,8.68283436 9.16622509,8.64997863 9.29625844,8.62582 C9.42722728,8.60166137 9.51984096,8.58330081 9.57503498,8.57073832 C9.63022899,8.55914218 9.72097169,8.5465797 9.84726307,8.53401721 C9.97355445,8.52242107 10.0399744,8.51565665 10.0483938,8.51565665 C12.0288298,8.36877218 14.5032054,8.2962963 17.4705852,8.2962963 C18.7971124,8.2962963 20.0768651,8.31369051 21.3117142,8.35041163 C22.5465633,8.38713274 23.4530548,8.42578655 24.0283822,8.46637305 L24.8927766,8.51565665 C24.9002605,8.51565665 24.9676159,8.52242107 25.0939073,8.53401721 C25.2201987,8.5465797 25.3109414,8.55914218 25.3661354,8.57073832 C25.4213294,8.58330081 25.5148786,8.60166137 25.6449119,8.62582 C25.7749453,8.64997863 25.8872043,8.68283436 25.9816889,8.72438721 C26.0761736,8.7649737 26.1865616,8.81812269 26.3137885,8.88286782 C26.4400799,8.94761294 26.5616938,9.02781959 26.6805012,9.12155507 C26.7983732,9.21529055 26.9125032,9.32352121 27.0238267,9.4452807 C27.0706013,9.49359796 27.1323438,9.56993923 27.2071831,9.67140547 C27.2820224,9.77287172 27.3961524,10.0125253 27.5505086,10.3865009 C27.7048647,10.7614428 27.8087043,11.1731059 27.8638983,11.62149 C27.9275117,12.1433164 27.9770928,12.6999312 28.0126415,13.2913345 C28.0481902,13.8817714 28.0697065,14.3446507 28.0771904,14.6790062 L28.0771904,15.1679768 Z M32.15116,1.75501036 C30.9478344,0.588115173 29.4845906,0 27.7806816,0 L7.15086828,0 C5.4469593,0 3.99334203,0.588115173 2.78038987,1.75501036 C1.56743771,2.93030719 0.970588235,4.34925173 0.970588235,6.00157531 L0.970588235,26.0077599 C0.970588235,27.6600834 1.56743771,29.0687593 2.78038987,30.2459232 C3.99334203,31.42122 5.4469593,32 7.15086828,32 L27.7806816,32 C29.4845906,32 30.9478344,31.42122 32.15116,30.2459232 C33.3641122,29.0687593 33.9705882,27.6600834 33.9705882,26.0077599 L33.9705882,6.00157531 C33.9705882,4.34925173 33.3641122,2.93030719 32.15116,1.75501036 L32.15116,1.75501036 Z" id="Fill-10" fill="#000000"></path>
                </g>
            </g>
        </g>
    </g>
</svg>